<svg xmlns="http://www.w3.org/2000/svg" viewBox="0 0 512 512" width="512" height="512">
  <defs>
    <linearGradient id="bg" x1="0%" y1="0%" x2="100%" y2="100%">
      <stop offset="0%" style="stop-color:#1E3A5F"/>
      <stop offset="100%" style="stop-color:#0A1929"/>
    </linearGradient>
    <linearGradient id="score" x1="0%" y1="0%" x2="100%" y2="100%">
      <stop offset="0%" style="stop-color:#F4D88A"/>
      <stop offset="100%" style="stop-color:#B8860B"/>
    </linearGradient>
  </defs>
  <rect width="512" height="512" rx="96" fill="url(#bg)"/>
  <g transform="translate(256,256)" stroke="#ffffff" stroke-width="3" fill="none" opacity="0.35">
    <polygon points="0,-160 152,-49 94,128 -94,128 -152,-49"/>
    <polygon points="0,-120 114,-37 70,96 -70,96 -114,-37"/>
    <polygon points="0,-80 76,-25 47,64 -47,64 -76,-25"/>
    <polygon points="0,-40 38,-12 24,32 -24,32 -38,-12"/>
    <line x1="0" y1="0" x2="0" y2="-160"/>
    <line x1="0" y1="0" x2="152" y2="-49"/>
    <line x1="0" y1="0" x2="94" y2="128"/>
    <line x1="0" y1="0" x2="-94" y2="128"/>
    <line x1="0" y1="0" x2="-152" y2="-49"/>
  </g>
  <g transform="translate(256,256)">
    <polygon points="0,-140 120,-39 56,76 -75,102 -100,-32" fill="url(#score)" opacity="0.85" stroke="#F4D88A" stroke-width="4" stroke-linejoin="round"/>
    <circle cx="0" cy="-140" r="8" fill="#F4D88A"/>
    <circle cx="120" cy="-39" r="8" fill="#F4D88A"/>
    <circle cx="56" cy="76" r="8" fill="#F4D88A"/>
    <circle cx="-75" cy="102" r="8" fill="#F4D88A"/>
    <circle cx="-100" cy="-32" r="8" fill="#F4D88A"/>
  </g>
</svg>
